<?xml version="1.0" encoding="UTF-8"?>
<svg xmlns="http://www.w3.org/2000/svg" viewBox="0 0 1000 750" font-family="Inter, system-ui, -apple-system, sans-serif" font-size="12">
  <defs>
    <pattern id="perf-grid" patternUnits="userSpaceOnUse" width="10" height="10">
      <circle cx="5" cy="5" r="1" fill="#999"/>
    </pattern>
  </defs>

  <rect width="1000" height="750" fill="#fafafa"/>

  <text x="500" y="30" text-anchor="middle" font-size="20" font-weight="700" fill="#111">
    Perfboard layout — top-down view
  </text>
  <text x="500" y="50" text-anchor="middle" font-size="12" fill="#666" font-style="italic">
    standard 70 × 90 mm protoboard, 2.54 mm grid · scale ~6 px / mm
  </text>

  <!-- Board outline -->
  <g transform="translate(120, 100)">
    <!-- 70 mm × 90 mm board, scaled 6 px/mm -->
    <rect x="0" y="0" width="540" height="420" fill="#226633" stroke="#0e3a20" stroke-width="2" rx="3"/>
    <rect x="0" y="0" width="540" height="420" fill="url(#perf-grid)" opacity="0.4"/>

    <!-- corner mounting holes -->
    <circle cx="15" cy="15" r="4" fill="#888" stroke="#0e3a20"/>
    <circle cx="525" cy="15" r="4" fill="#888" stroke="#0e3a20"/>
    <circle cx="15" cy="405" r="4" fill="#888" stroke="#0e3a20"/>
    <circle cx="525" cy="405" r="4" fill="#888" stroke="#0e3a20"/>

    <!-- =========== Components placed on the board =========== -->

    <!-- ESP32-C6 DevKitC-1 (52 x 28 mm) at top-left -->
    <g transform="translate(40, 60)">
      <rect width="312" height="100" fill="#1a4a8a" stroke="#0e3a20" stroke-width="1.5" rx="2"/>
      <rect x="6" y="-3" width="300" height="6" fill="#0a0a0a"/>
      <rect x="6" y="97" width="300" height="6" fill="#0a0a0a"/>
      <text x="156" y="40" text-anchor="middle" font-size="14" font-weight="700" fill="#fff">ESP32-C6 DevKitC-1</text>
      <text x="156" y="58" text-anchor="middle" font-size="10" fill="#bbd">on female pin headers</text>
      <text x="156" y="74" text-anchor="middle" font-size="10" fill="#bbd">(plug-in module)</text>
      <!-- USB connector -->
      <rect x="-4" y="38" width="20" height="24" fill="#444" stroke="#222"/>
      <text x="-15" y="56" font-size="9" fill="#444" text-anchor="end">USB-C</text>
    </g>

    <!-- TMC2209 V1.3 (21 x 16 mm — small driver module) bottom-centre -->
    <g transform="translate(220, 240)">
      <rect width="126" height="100" fill="#5a3a8a" stroke="#0e3a20" stroke-width="1.5" rx="2"/>
      <rect x="-3" y="6" width="6" height="86" fill="#0a0a0a"/>
      <rect x="123" y="6" width="6" height="86" fill="#0a0a0a"/>
      <text x="63" y="40" text-anchor="middle" font-size="14" font-weight="700" fill="#fff">TMC2209</text>
      <text x="63" y="58" text-anchor="middle" font-size="10" fill="#dcd">V1.3 + heatsink</text>
      <!-- Vref pot indicator -->
      <circle cx="40" cy="80" r="6" fill="#aaa" stroke="#666"/>
      <text x="40" y="83" text-anchor="middle" font-size="7" fill="#222">VREF</text>
    </g>

    <!-- 470 µF cap right next to TMC2209 -->
    <g transform="translate(370, 270)">
      <ellipse cx="20" cy="20" rx="20" ry="20" fill="#5a3010" stroke="#222"/>
      <text x="20" y="18" text-anchor="middle" font-size="9" fill="#fff" font-weight="700">470µF</text>
      <text x="20" y="28" text-anchor="middle" font-size="9" fill="#fff">35 V</text>
      <line x1="14" y1="44" x2="14" y2="60" stroke="#222" stroke-width="1.5"/>
      <line x1="26" y1="44" x2="26" y2="60" stroke="#222" stroke-width="1.5"/>
      <text x="6" y="56" font-size="8" fill="#222">+</text>
      <text x="32" y="56" font-size="8" fill="#222">−</text>
      <text x="20" y="-8" text-anchor="middle" font-size="9" fill="#744" font-style="italic">very close to TMC2209 VM</text>
    </g>

    <!-- LM2596 Buck (43 x 22 mm) top-right -->
    <g transform="translate(380, 60)">
      <rect width="130" height="80" fill="#1f6e3a" stroke="#0e3a20" stroke-width="1.5" rx="2"/>
      <text x="65" y="34" text-anchor="middle" font-size="13" font-weight="700" fill="#fff">LM2596</text>
      <text x="65" y="50" text-anchor="middle" font-size="10" fill="#cfc">12 V → 5 V</text>
      <!-- adjust pot -->
      <rect x="100" y="58" width="14" height="14" fill="#aaa" stroke="#666"/>
      <text x="107" y="80" text-anchor="middle" font-size="7" fill="#222">ADJ</text>
    </g>

    <!-- Power input screw terminal (left edge) -->
    <g transform="translate(20, 200)">
      <rect width="40" height="30" fill="#3a8855" stroke="#0e3a20" rx="2"/>
      <circle cx="10" cy="15" r="4" fill="#666"/>
      <circle cx="30" cy="15" r="4" fill="#666"/>
      <text x="20" y="-4" text-anchor="middle" font-size="9" fill="#222" font-weight="700">12 V IN</text>
      <text x="20" y="44" text-anchor="middle" font-size="9" fill="#444">+   −</text>
    </g>

    <!-- Inline fuse holder near 12V input -->
    <g transform="translate(80, 195)">
      <rect width="80" height="40" fill="#222" stroke="#000" rx="3"/>
      <rect x="10" y="12" width="60" height="16" fill="#888" stroke="#444"/>
      <text x="40" y="24" text-anchor="middle" font-size="10" fill="#222">FUSE 5 A</text>
      <text x="40" y="-4" text-anchor="middle" font-size="9" fill="#222">inline blade fuse</text>
    </g>

    <!-- Motor output terminal (right edge) -->
    <g transform="translate(480, 200)">
      <rect width="40" height="60" fill="#8e44ad" stroke="#0e3a20" rx="2"/>
      <circle cx="20" cy="10" r="4" fill="#666"/>
      <circle cx="20" cy="22" r="4" fill="#666"/>
      <circle cx="20" cy="38" r="4" fill="#666"/>
      <circle cx="20" cy="50" r="4" fill="#666"/>
      <text x="20" y="-4" text-anchor="middle" font-size="9" fill="#222" font-weight="700">MOTOR</text>
      <text x="50" y="14" font-size="9" fill="#444">A1</text>
      <text x="50" y="26" font-size="9" fill="#444">A2</text>
      <text x="50" y="42" font-size="9" fill="#444">B1</text>
      <text x="50" y="54" font-size="9" fill="#444">B2</text>
    </g>

    <!-- Endstop terminal (bottom edge) -->
    <g transform="translate(80, 370)">
      <rect width="40" height="30" fill="#7f8c8d" stroke="#0e3a20" rx="2"/>
      <circle cx="10" cy="15" r="4" fill="#666"/>
      <circle cx="30" cy="15" r="4" fill="#666"/>
      <text x="20" y="-4" text-anchor="middle" font-size="9" fill="#222" font-weight="700">ENDSTOP</text>
      <text x="20" y="44" text-anchor="middle" font-size="9" fill="#444">COM   NO</text>
    </g>

    <!-- =========== Wire paths (back side of the board, drawn here for clarity) =========== -->

    <!-- 12V input → fuse → bus -->
    <line x1="40" y1="215" x2="80" y2="215" stroke="#c0392b" stroke-width="3"/>
    <line x1="160" y1="215" x2="220" y2="215" stroke="#c0392b" stroke-width="3"/>

    <!-- 12V bus splitting to LM2596 IN+ and TMC2209 VM -->
    <line x1="220" y1="215" x2="220" y2="260" stroke="#c0392b" stroke-width="3"/>
    <line x1="220" y1="215" x2="220" y2="100" stroke="#c0392b" stroke-width="3"/>
    <line x1="220" y1="100" x2="380" y2="100" stroke="#c0392b" stroke-width="3"/>
    <text x="290" y="95" font-size="9" fill="#c0392b">+12 V to LM2596 IN+</text>

    <!-- 12V bus to cap and TMC2209 VM -->
    <line x1="220" y1="260" x2="370" y2="260" stroke="#c0392b" stroke-width="3"/>
    <line x1="380" y1="270" x2="380" y2="260" stroke="#c0392b" stroke-width="3"/>
    <text x="280" y="255" font-size="9" fill="#c0392b">+12 V to cap + VM</text>

    <!-- GND bus from terminal to LM2596 IN−, TMC2209 GND, cap −, ESP32 GND, motor terminal -->
    <line x1="40" y1="240" x2="40" y2="380" stroke="#222" stroke-width="3"/>
    <line x1="40" y1="380" x2="500" y2="380" stroke="#222" stroke-width="3"/>
    <line x1="40" y1="120" x2="40" y2="240" stroke="#222" stroke-width="3"/>
    <line x1="40" y1="120" x2="380" y2="120" stroke="#222" stroke-width="3"/>
    <text x="80" y="375" font-size="9" fill="#222">GND bus</text>

    <!-- 5V from LM2596 OUT+ to ESP32 5V -->
    <line x1="510" y1="100" x2="510" y2="40" stroke="#e67e22" stroke-width="3"/>
    <line x1="510" y1="40" x2="40" y2="40" stroke="#e67e22" stroke-width="3"/>
    <line x1="40" y1="40" x2="40" y2="60" stroke="#e67e22" stroke-width="3"/>
    <text x="240" y="35" font-size="9" fill="#e67e22">+5 V to ESP32</text>

    <!-- ESP32 GPIO4-7 to TMC2209 STEP/DIR/EN/endstop (logic group) -->
    <line x1="280" y1="160" x2="280" y2="240" stroke="#7f8c8d" stroke-width="2"/>
    <line x1="290" y1="160" x2="290" y2="240" stroke="#7f8c8d" stroke-width="2"/>
    <line x1="300" y1="160" x2="300" y2="240" stroke="#7f8c8d" stroke-width="2"/>
    <text x="295" y="200" font-size="9" fill="#555">STEP DIR EN</text>

    <!-- ESP32 GPIO7 to endstop COM -->
    <line x1="100" y1="160" x2="100" y2="370" stroke="#7f8c8d" stroke-width="2"/>
    <text x="50" y="320" font-size="9" fill="#555">GPIO7 → endstop COM</text>

    <!-- TMC2209 motor outs A1/A2/B1/B2 to motor terminal -->
    <line x1="346" y1="270" x2="480" y2="220" stroke="#8e44ad" stroke-width="2"/>
    <line x1="346" y1="290" x2="480" y2="232" stroke="#8e44ad" stroke-width="2"/>
    <line x1="346" y1="310" x2="480" y2="248" stroke="#8e44ad" stroke-width="2"/>
    <line x1="346" y1="330" x2="480" y2="260" stroke="#8e44ad" stroke-width="2"/>
    <text x="395" y="280" font-size="9" fill="#8e44ad">A1 A2 B1 B2</text>
  </g>

  <!-- Notes panel -->
  <g transform="translate(700, 100)">
    <rect x="0" y="0" width="270" height="420" fill="#fff" stroke="#bbb" rx="3"/>
    <text x="135" y="25" text-anchor="middle" font-size="13" font-weight="700">Build notes</text>

    <text x="10" y="50" font-size="11" font-weight="700" fill="#c0392b">1. Solder female pin headers first</text>
    <text x="10" y="65" font-size="10" fill="#444">for ESP32-C6 and TMC2209 — modules</text>
    <text x="10" y="78" font-size="10" fill="#444">plug in/out, removable for debug.</text>

    <text x="10" y="105" font-size="11" font-weight="700" fill="#c0392b">2. The 470 µF cap is critical</text>
    <text x="10" y="120" font-size="10" fill="#444">Solder it within 1-2 cm of the</text>
    <text x="10" y="133" font-size="10" fill="#444">TMC2209's VM pin. Do not put it</text>
    <text x="10" y="146" font-size="10" fill="#444">at the input terminal.</text>

    <text x="10" y="173" font-size="11" font-weight="700" fill="#c0392b">3. GND star point</text>
    <text x="10" y="188" font-size="10" fill="#444">All grounds (PSU, LM2596 IN−,</text>
    <text x="10" y="201" font-size="10" fill="#444">LM2596 OUT−, TMC2209 GND ×2,</text>
    <text x="10" y="214" font-size="10" fill="#444">ESP32 GND, cap −, endstop NO)</text>
    <text x="10" y="227" font-size="10" fill="#444">tie to one bus on the board.</text>

    <text x="10" y="254" font-size="11" font-weight="700" fill="#c0392b">4. Trace width</text>
    <text x="10" y="269" font-size="10" fill="#444">Power and motor traces: thick</text>
    <text x="10" y="282" font-size="10" fill="#444">solder bridges or jumper wire</text>
    <text x="10" y="295" font-size="10" fill="#444">(≥ 18 AWG). Logic traces: any.</text>

    <text x="10" y="322" font-size="11" font-weight="700" fill="#c0392b">5. Set Vref BEFORE motor power</text>
    <text x="10" y="337" font-size="10" fill="#444">Power up just the ESP32 + driver</text>
    <text x="10" y="350" font-size="10" fill="#444">(no motor connected). Adjust the</text>
    <text x="10" y="363" font-size="10" fill="#444">TMC2209 Vref pot to ~1.0 V using</text>
    <text x="10" y="376" font-size="10" fill="#444">a multimeter. Then power down,</text>
    <text x="10" y="389" font-size="10" fill="#444">connect motor, power on again.</text>
  </g>

  <!-- Footer -->
  <text x="500" y="700" text-anchor="middle" font-size="11" fill="#666" font-style="italic">
    Wire paths are schematic — actual perfboard routing depends on which holes you use. Keep power and ground traces short and thick.
  </text>
</svg>
