<?xml version="1.0" encoding="UTF-8"?>
<svg xmlns="http://www.w3.org/2000/svg" viewBox="0 0 1000 640" font-family="Inter, system-ui, -apple-system, sans-serif" font-size="12">
  <defs>
    <pattern id="ceiling-hatch" patternUnits="userSpaceOnUse" width="8" height="8" patternTransform="rotate(45)">
      <line x1="0" y1="0" x2="0" y2="8" stroke="#aaa" stroke-width="1"/>
    </pattern>
    <marker id="leader-arrow" markerWidth="10" markerHeight="10" refX="9" refY="3" orient="auto">
      <polygon points="0 0, 10 3, 0 6" fill="#444"/>
    </marker>
    <marker id="dim-start" markerWidth="10" markerHeight="10" refX="1" refY="3" orient="auto">
      <polygon points="10 0, 0 3, 10 6" fill="#666"/>
    </marker>
    <marker id="dim-end" markerWidth="10" markerHeight="10" refX="9" refY="3" orient="auto">
      <polygon points="0 0, 10 3, 0 6" fill="#666"/>
    </marker>
    <marker id="red-arrow" markerWidth="10" markerHeight="10" refX="9" refY="3" orient="auto">
      <polygon points="0 0, 10 3, 0 6" fill="#c0392b"/>
    </marker>
  </defs>

  <rect width="1000" height="640" fill="#fafafa"/>

  <text x="500" y="32" text-anchor="middle" font-size="19" font-weight="700" fill="#111">
    Mounting detail · moving anchor (sash top rail)
  </text>
  <text x="500" y="52" text-anchor="middle" font-size="12" fill="#666" font-style="italic">
    vertical cut at X = d = 120 mm from hinge · scale 2.5 px / mm · outside ← · → room
  </text>

  <text x="60" y="330" text-anchor="middle" font-size="13" fill="#666" font-style="italic">← outside</text>
  <text x="940" y="330" text-anchor="middle" font-size="13" fill="#666" font-style="italic">room →</text>

  <g transform="translate(180, 75)">

    <!-- Ceiling -->
    <rect x="0" y="0" width="560" height="25" fill="#e0e0e0" stroke="#888"/>
    <rect x="0" y="0" width="560" height="25" fill="url(#ceiling-hatch)"/>
    <text x="280" y="16" text-anchor="middle" font-size="10" fill="#444">ceiling (concrete slab)</text>

    <!-- FRAME — 80 mm × 80 mm, top touches ceiling, mostly hidden behind the sash -->
    <rect x="100" y="25" width="200" height="200" fill="#7a4f24" stroke="#2a1a08" stroke-width="1.8"/>
    <text x="200" y="150" text-anchor="middle" font-size="12" fill="#fff" font-weight="700">FRAME</text>
    <text x="200" y="167" text-anchor="middle" font-size="10" fill="#ddd" font-style="italic">(hidden behind sash)</text>

    <!-- Frame depth dimension -->
    <line x1="100" y1="15" x2="100" y2="-5" stroke="#666"/>
    <line x1="300" y1="15" x2="300" y2="-5" stroke="#666"/>
    <line x1="100" y1="5" x2="300" y2="5" stroke="#666" marker-start="url(#dim-start)" marker-end="url(#dim-end)"/>
    <text x="200" y="-8" text-anchor="middle" font-size="11" fill="#444">frame 80 mm</text>

    <!-- SASH — 80 mm thick, 20 mm lip past frame face -->
    <rect x="150" y="75" width="200" height="485" fill="#2f6e4a" stroke="#123a26" stroke-width="1.8"/>
    <text x="250" y="340" text-anchor="middle" font-size="13" fill="#fff" font-weight="700">SASH</text>
    <text x="250" y="360" text-anchor="middle" font-size="10" fill="#ddd" font-style="italic">80 mm thick</text>
    <text x="250" y="374" text-anchor="middle" font-size="10" fill="#ddd" font-style="italic">entire room face available</text>

    <!-- Sash thickness dimension -->
    <line x1="150" y1="575" x2="150" y2="595" stroke="#666"/>
    <line x1="350" y1="575" x2="350" y2="595" stroke="#666"/>
    <line x1="150" y1="587" x2="350" y2="587" stroke="#666" marker-start="url(#dim-start)" marker-end="url(#dim-end)"/>
    <text x="250" y="608" text-anchor="middle" font-size="11" fill="#444">sash 80 mm</text>

    <!-- Sash lip -->
    <line x1="300" y1="614" x2="300" y2="632" stroke="#c0392b" stroke-width="1.2"/>
    <line x1="350" y1="614" x2="350" y2="632" stroke="#c0392b" stroke-width="1.2"/>
    <line x1="300" y1="624" x2="350" y2="624" stroke="#c0392b" stroke-width="1.2" marker-start="url(#dim-start)" marker-end="url(#dim-end)"/>
    <text x="325" y="634" text-anchor="middle" font-size="10" fill="#c0392b" font-weight="700">lip 20 mm</text>

    <!-- Glass schematic -->
    <line x1="220" y1="560" x2="220" y2="575" stroke="#99c" stroke-width="2.5"/>
    <line x1="300" y1="560" x2="300" y2="575" stroke="#99c" stroke-width="2.5"/>
    <text x="260" y="550" text-anchor="middle" font-size="9" fill="#667" font-style="italic">↓ double glass</text>

    <!-- BRACKET — simple plate on sash's room face. No arm, no hook. -->
    <g>
      <rect x="350" y="95" width="10" height="105" fill="#b92c2c" stroke="#5a0d0d" stroke-width="1.2" rx="1.5"/>
      <!-- Three M4 screws through plate into sash -->
      <circle cx="345" cy="110" r="2.5" fill="#111"/>
      <circle cx="345" cy="148" r="2.5" fill="#111"/>
      <circle cx="345" cy="185" r="2.5" fill="#111"/>
      <text x="325" y="88" text-anchor="middle" font-size="10" fill="#b92c2c" font-weight="700">BRACKET</text>
      <text x="325" y="102" text-anchor="middle" font-size="9" fill="#b92c2c" font-style="italic">(plate only)</text>

      <!-- M6 rod-end shank passing through the plate; nut on the sash side -->
      <rect x="345" y="144" width="10" height="8" fill="#222"/>
      <rect x="355" y="142" width="30" height="12" fill="#777" stroke="#333" stroke-width="1"/>
      <text x="370" y="135" text-anchor="middle" font-size="9" fill="#333" font-style="italic">M6 shank</text>
    </g>

    <!-- Rod-end ball at the end of the shank -->
    <circle cx="400" cy="148" r="16" fill="#fff" stroke="#222" stroke-width="2"/>
    <circle cx="400" cy="148" r="6" fill="#333"/>
    <line x1="400" y1="132" x2="400" y2="164" stroke="#222" stroke-width="2"/>
    <text x="400" y="123" text-anchor="middle" font-size="10" fill="#222" font-weight="700">rod-end</text>

    <!-- Actuator body — end-on, extending OUT OF PAGE toward top-middle of frame -->
    <g>
      <ellipse cx="447" cy="148" rx="20" ry="22" fill="#555" stroke="#222" stroke-width="1.5"/>
      <path d="M 447 126 L 625 126 L 625 170 L 447 170 Z" fill="#555" stroke="#222" stroke-width="1.5"/>
      <ellipse cx="625" cy="148" rx="7" ry="22" fill="#3a3a3a" stroke="#111" stroke-width="1" opacity="0.6"/>
      <text x="657" y="154" font-size="26" fill="#333" font-weight="700">…</text>
      <text x="536" y="120" text-anchor="middle" font-size="11" fill="#fff" font-weight="700">ACTUATOR BODY</text>
      <text x="536" y="193" text-anchor="middle" font-size="10" fill="#666" font-style="italic">runs toward fixed anchor (out of page)</text>
    </g>

    <!-- Bracket protrusion note -->
    <line x1="350" y1="220" x2="350" y2="240" stroke="#666"/>
    <line x1="385" y1="220" x2="385" y2="240" stroke="#666"/>
    <line x1="350" y1="232" x2="385" y2="232" stroke="#666" marker-start="url(#dim-start)" marker-end="url(#dim-end)"/>
    <text x="367" y="253" text-anchor="middle" font-size="10" fill="#444">~14 mm shank</text>

    <!-- 190 mm width annotation -->
    <path d="M 355 280 Q 420 320, 500 310" fill="none" stroke="#555" stroke-width="1" marker-end="url(#leader-arrow)"/>
    <text x="460" y="340" font-size="10" fill="#555">plate extends 190 mm along</text>
    <text x="460" y="354" font-size="10" fill="#555">the sash top rail (into page)</text>

    <!-- Load analysis box -->
    <g transform="translate(430, 390)">
      <rect x="0" y="0" width="260" height="80" fill="#e8f6ea" stroke="#2f8f47" stroke-width="1" rx="3"/>
      <text x="130" y="18" text-anchor="middle" font-size="11" fill="#264" font-weight="700">load path (comfortable margin)</text>
      <text x="10" y="36" font-size="10" fill="#333">plate area: 190 × ~105 mm ≈ 20 000 mm²</text>
      <text x="10" y="50" font-size="10" fill="#333">stall-force peel stress ≈ 60 kPa</text>
      <text x="10" y="64" font-size="10" fill="#333">standard VHB limit 500 kPa → ~8× margin</text>
      <text x="10" y="76" font-size="10" fill="#333">no hook or tab needed</text>
    </g>

    <!-- Sash top reference line -->
    <line x1="-5" y1="75" x2="150" y2="75" stroke="#c0392b" stroke-dasharray="4,3" stroke-width="1"/>
    <text x="-12" y="79" text-anchor="end" font-size="9" fill="#c0392b" font-style="italic">sash top</text>

  </g>

  <!-- Legend -->
  <g transform="translate(60, 625)">
    <rect x="0" y="-14" width="16" height="12" fill="#7a4f24" stroke="#2a1a08"/>
    <text x="22" y="-4" font-size="11" fill="#333">frame (hidden)</text>

    <rect x="140" y="-14" width="16" height="12" fill="#2f6e4a" stroke="#123a26"/>
    <text x="162" y="-4" font-size="11" fill="#333">sash</text>

    <rect x="215" y="-14" width="16" height="12" fill="#b92c2c" stroke="#5a0d0d"/>
    <text x="237" y="-4" font-size="11" fill="#333">bracket plate + M6 shank</text>

    <circle cx="420" cy="-8" r="7" fill="#fff" stroke="#222" stroke-width="1.5"/>
    <text x="432" y="-4" font-size="11" fill="#333">M6 rod-end</text>

    <rect x="520" y="-14" width="16" height="12" fill="#555" stroke="#222"/>
    <text x="542" y="-4" font-size="11" fill="#333">actuator body</text>

    <rect x="660" y="-14" width="16" height="12" fill="#e0e0e0" stroke="#888"/>
    <text x="682" y="-4" font-size="11" fill="#333">ceiling</text>
  </g>
</svg>
